{
  "accessors": [
    {
      "bufferView": 1,
      "componentType": 5123,
      "type": "SCALAR",
      "count": 72
    },
    {
      "bufferView": 2,
      "componentType": 5126,
      "type": "VEC3",
      "count": 48,
      "min": [15, 14, 0],
      "max": [16, 16, 2]
    },
    {
      "bufferView": 2,
      "componentType": 5126,
      "type": "VEC3",
      "byteOffset": 12,
      "count": 48
    },
    {
      "bufferView": 2,
      "componentType": 5126,
      "type": "VEC2",
      "byteOffset": 24,
      "count": 48
    },
    {
      "bufferView": 3,
      "componentType": 5123,
      "type": "SCALAR",
      "count": 558
    },
    {
      "bufferView": 4,
      "componentType": 5126,
      "type": "VEC3",
      "count": 372,
      "min": [12, 0, 0],
      "max": [16, 5, 9]
    },
    {
      "bufferView": 4,
      "componentType": 5126,
      "type": "VEC3",
      "byteOffset": 12,
      "count": 372
    },
    {
      "bufferView": 4,
      "componentType": 5126,
      "type": "VEC2",
      "byteOffset": 24,
      "count": 372
    },
    {
      "bufferView": 5,
      "componentType": 5123,
      "type": "SCALAR",
      "count": 366
    },
    {
      "bufferView": 6,
      "componentType": 5126,
      "type": "VEC3",
      "count": 244,
      "min": [0, 0, 0],
      "max": [3, 3, 9]
    },
    {
      "bufferView": 6,
      "componentType": 5126,
      "type": "VEC3",
      "byteOffset": 12,
      "count": 244
    },
    {
      "bufferView": 6,
      "componentType": 5126,
      "type": "VEC2",
      "byteOffset": 24,
      "count": 244
    },
    {
      "bufferView": 7,
      "componentType": 5123,
      "type": "SCALAR",
      "count": 192
    },
    {
      "bufferView": 8,
      "componentType": 5126,
      "type": "VEC3",
      "count": 128,
      "min": [14, 0, 9],
      "max": [16, 3, 12]
    },
    {
      "bufferView": 8,
      "componentType": 5126,
      "type": "VEC3",
      "byteOffset": 12,
      "count": 128
    },
    {
      "bufferView": 8,
      "componentType": 5126,
      "type": "VEC2",
      "byteOffset": 24,
      "count": 128
    },
    {
      "bufferView": 9,
      "componentType": 5123,
      "type": "SCALAR",
      "count": 84
    },
    {
      "bufferView": 10,
      "componentType": 5126,
      "type": "VEC3",
      "count": 56,
      "min": [0, 0, 9],
      "max": [1, 3, 11]
    },
    {
      "bufferView": 10,
      "componentType": 5126,
      "type": "VEC3",
      "byteOffset": 12,
      "count": 56
    },
    {
      "bufferView": 10,
      "componentType": 5126,
      "type": "VEC2",
      "byteOffset": 24,
      "count": 56
    }
  ],
  "asset": {
    "generator": "goxel",
    "version": "2.0"
  },
  "bufferViews": [
    {
      "buffer": 0,
      "byteLength": 94
    },
    {
      "buffer": 2,
      "byteLength": 144
    },
    {
      "buffer": 1,
      "byteLength": 1536,
      "byteStride": 32
    },
    {
      "buffer": 4,
      "byteLength": 1116
    },
    {
      "buffer": 3,
      "byteLength": 11904,
      "byteStride": 32
    },
    {
      "buffer": 6,
      "byteLength": 732
    },
    {
      "buffer": 5,
      "byteLength": 7808,
      "byteStride": 32
    },
    {
      "buffer": 8,
      "byteLength": 384
    },
    {
      "buffer": 7,
      "byteLength": 4096,
      "byteStride": 32
    },
    {
      "buffer": 10,
      "byteLength": 168
    },
    {
      "buffer": 9,
      "byteLength": 1792,
      "byteStride": 32
    }
  ],
  "buffers": [
    {
      "uri": "data:application/octet-stream;base64,",
      "byteLength": 94
    },
    {
      "uri": "data:application/octet-stream;base64,",
      "byteLength": 1536
    },
    {
      "uri": "data:application/octet-stream;base64,",
      "byteLength": 144
    },
    {
      "uri": "data:application/octet-stream;base64,",
      "byteLength": 11904
    },
    {
      "uri": "data:application/octet-stream;base64,",
      "byteLength": 1116
    },
    {
      "uri": "data:application/octet-stream;base64,",
      "byteLength": 7808
    },
    {
      "uri": "data:application/octet-stream;base64,",
      "byteLength": 732
    },
    {
      "uri": "data:application/octet-stream;base64,",
      "byteLength": 4096
    },
    {
      "uri": "data:application/octet-stream;base64,",
      "byteLength": 384
    },
    {
      "uri": "data:application/octet-stream;base64,",
      "byteLength": 1792
    },
    {
      "uri": "data:application/octet-stream;base64,",
      "byteLength": 168
    }
  ],
  "images": [
    {
      "bufferView": 0,
      "mimeType": "image/png"
    }
  ],
  "meshes": [
    {
      "primitives": [
        {
          "indices": 0,
          "material": 0,
          "attributes": {
            "POSITION": 1,
            "NORMAL": 2,
            "TEXCOORD_0": 3
          }
        }
      ]
    },
    {
      "primitives": [
        {
          "indices": 4,
          "material": 0,
          "attributes": {
            "POSITION": 5,
            "NORMAL": 6,
            "TEXCOORD_0": 7
          }
        }
      ]
    },
    {
      "primitives": [
        {
          "indices": 8,
          "material": 0,
          "attributes": {
            "POSITION": 9,
            "NORMAL": 10,
            "TEXCOORD_0": 11
          }
        }
      ]
    },
    {
      "primitives": [
        {
          "indices": 12,
          "material": 0,
          "attributes": {
            "POSITION": 13,
            "NORMAL": 14,
            "TEXCOORD_0": 15
          }
        }
      ]
    },
    {
      "primitives": [
        {
          "indices": 16,
          "material": 0,
          "attributes": {
            "POSITION": 17,
            "NORMAL": 18,
            "TEXCOORD_0": 19
          }
        }
      ]
    }
  ],
  "materials": [
    {
      "name": "Material.1",
      "pbrMetallicRoughness": {
        "baseColorTexture": {
          "index": 0
        },
        "metallicFactor": 0.200000003,
        "roughnessFactor": 0.5
      },
      "emissiveFactor": [1.49011612e-08, 1.49011612e-08, 1.49011612e-08]
    }
  ],
  "nodes": [
    {
      "children": [ 4, 7 ],
      "matrix": [1, 0, 0, 0, 0, 0, -1, 0, 0, 1, 0, 0, 0, 0, 0, 1]
    },
    {
      "mesh": 0,
      "translation": [-16, -16, 0]
    },
    {
      "mesh": 1,
      "translation": [-16, 0, 0]
    },
    {
      "mesh": 2,
      "translation": [0, 0, 0]
    },
    {
      "children": [ 1, 2, 3 ]
    },
    {
      "mesh": 3,
      "translation": [-16, 0, 0]
    },
    {
      "mesh": 4,
      "translation": [0, 0, 0]
    },
    {
      "children": [ 5, 6 ]
    }
  ],
  "scenes": [
    {
      "nodes": [ 0 ]
    }
  ],
  "textures": [
    {
      "source": 0
    }
  ]
}
